<svg xmlns="http://www.w3.org/2000/svg" xmlns:xlink="http://www.w3.org/1999/xlink" width="500" zoomAndPan="magnify" viewBox="0 0 375 374.999991" height="500" preserveAspectRatio="xMidYMid meet" version="1.0"><defs><clipPath id="bd3b4c5a05"><path d="M 110.25 99.6875 L 260.25 99.6875 L 260.25 174.6875 L 110.25 174.6875 Z M 110.25 99.6875 " clip-rule="nonzero"/></clipPath><clipPath id="422ef8494b"><path d="M 27.6875 17.125 L 342.6875 17.125 L 342.6875 332.125 L 27.6875 332.125 Z M 27.6875 17.125 " clip-rule="nonzero"/></clipPath><clipPath id="ecafcb1a7c"><path d="M 185.246094 17.125 C 98.230469 17.125 27.6875 87.667969 27.6875 174.683594 C 27.6875 261.699219 98.230469 332.242188 185.246094 332.242188 C 272.261719 332.242188 342.804688 261.699219 342.804688 174.683594 C 342.804688 87.667969 272.261719 17.125 185.246094 17.125 Z M 185.246094 17.125 " clip-rule="nonzero"/></clipPath></defs><g clip-path="url(#bd3b4c5a05)"><path fill="#053242" d="M 260.25 174.6875 L 246.015625 174.6875 C 246.015625 141.183594 218.753906 113.921875 185.25 113.921875 C 151.746094 113.921875 124.484375 141.183594 124.484375 174.6875 L 110.25 174.6875 C 110.25 133.332031 143.894531 99.6875 185.25 99.6875 C 226.605469 99.6875 260.25 133.332031 260.25 174.6875 Z M 260.25 174.6875 " fill-opacity="1" fill-rule="nonzero"/></g><path stroke-linecap="butt" transform="matrix(0.75, 0, 0, 0.75, 35.250002, 130.437471)" fill="none" stroke-linejoin="miter" d="M -0.00000291367 9.000039 L 28.218749 9.000039 C 43.802083 9.000039 56.437501 21.635456 56.437501 37.218791 L 56.437501 37.395874 C 56.437501 44.927124 59.427084 52.145875 64.75521 57.474 C 70.078127 62.796917 77.302085 65.791709 84.833336 65.791709 L 320.723976 65.791709 C 328.255227 65.791709 335.479186 62.796917 340.802103 57.474 C 346.130228 52.145875 349.119812 44.927124 349.119812 37.395874 L 349.119812 34.43754 C 349.119812 20.390664 360.510437 9.000039 374.562522 9.000039 L 400.000023 9.000039 " stroke="#0a4c5e" stroke-width="18" stroke-opacity="1" stroke-miterlimit="4"/><path stroke-linecap="butt" transform="matrix(0.75, 0, 0, 0.75, 35.250002, 194.607585)" fill="none" stroke-linejoin="miter" d="M -0.00000291367 9.002387 L 77.484377 9.002387 C 88.69792 9.002387 97.79167 18.09093 97.79167 29.304472 C 97.79167 40.518015 106.880212 49.606557 118.093755 49.606557 L 288.005224 49.606557 C 299.218767 49.606557 308.307309 40.518015 308.307309 29.304472 C 308.307309 18.09093 317.40106 9.002387 328.614602 9.002387 L 400.000023 9.002387 " stroke="#0d768b" stroke-width="18" stroke-opacity="1" stroke-miterlimit="4"/><path stroke-linecap="butt" transform="matrix(0.75, 0, 0, 0.75, 58.078877, 246.641235)" fill="none" stroke-linejoin="miter" d="M -0.00100331 8.999187 L 90.092753 8.999187 C 100.389628 8.999187 108.733379 17.342938 108.733379 27.639813 C 108.733379 37.931481 117.077129 46.28044 127.374005 46.28044 L 217.540678 46.28044 C 227.832345 46.28044 236.176096 37.931481 236.176096 27.639813 C 236.176096 17.342938 244.525054 8.999187 254.816722 8.999187 L 339.124019 8.999187 " stroke="#47b5c8" stroke-width="18" stroke-opacity="1" stroke-miterlimit="4"/><g clip-path="url(#422ef8494b)"><g clip-path="url(#ecafcb1a7c)"><path stroke-linecap="butt" transform="matrix(0.75, 0, 0, 0.75, 27.687503, 17.125018)" fill="none" stroke-linejoin="miter" d="M 210.078134 -0.0000245273 C 94.057293 -0.0000245273 -0.00000442914 94.057273 -0.00000442914 210.078114 C -0.00000442914 326.098955 94.057293 420.156253 210.078134 420.156253 C 326.098975 420.156253 420.156273 326.098955 420.156273 210.078114 C 420.156273 94.057273 326.098975 -0.0000245273 210.078134 -0.0000245273 Z M 210.078134 -0.0000245273 " stroke="#0a4c5e" stroke-width="36" stroke-opacity="1" stroke-miterlimit="4"/></g></g></svg>