<?xml version="1.0" encoding="UTF-8" standalone="no" ?>
<!DOCTYPE svg PUBLIC "-//W3C//DTD SVG 1.1//EN" "http://www.w3.org/Graphics/SVG/1.1/DTD/svg11.dtd">
<svg xmlns="http://www.w3.org/2000/svg" xmlns:xlink="http://www.w3.org/1999/xlink" version="1.1" width="1280" height="1024" viewBox="0 0 1280 1024" xml:space="preserve">
<desc>Created with Fabric.js 5.3.0</desc>
<defs>
</defs>
<g transform="matrix(1 0 0 1 640 512)" id="background-logo"  >
<rect style="stroke: none; stroke-width: 0; stroke-dasharray: none; stroke-linecap: butt; stroke-dashoffset: 0; stroke-linejoin: miter; stroke-miterlimit: 4; fill: rgb(255,255,255); fill-opacity: 0; fill-rule: nonzero; opacity: 1;"  paint-order="stroke"  x="-640" y="-512" rx="0" ry="0" width="1280" height="1024" />
</g>
<g transform="matrix(5.652890662598213 0 0 5.652890662598213 640.8881578947368 512.7105263157894)" id="logo-logo"  >
<g style=""  paint-order="stroke"   >
		<g transform="matrix(0.8932936989994849 0 0 0.8932936989994849 0 0)"  >
<linearGradient id="SVGID_2_507226" gradientUnits="userSpaceOnUse" gradientTransform="matrix(1 0 0 1 0 0)"  x1="162.5" y1="31.3526001" x2="162.5" y2="223.641098">
<stop offset="0%" style="stop-color:rgb(166,202,247);stop-opacity: 1"/>
<stop offset="20.03461%" style="stop-color:rgb(133,183,244);stop-opacity: 1"/>
<stop offset="61.0119%" style="stop-color:rgb(49,133,237);stop-opacity: 1"/>
<stop offset="100%" style="stop-color:rgb(15,86,174);stop-opacity: 1"/>
</linearGradient>
<path style="stroke: none; stroke-width: 1; stroke-dasharray: none; stroke-linecap: butt; stroke-dashoffset: 0; stroke-linejoin: miter; stroke-miterlimit: 4; fill: url(#SVGID_2_507226); fill-rule: nonzero; opacity: 1;"  paint-order="stroke"  transform=" translate(-162.49999625000004, -130.0000008875)" d="M 168.9422302 39.1502228 C 165.75009150000002 34.791664100000006 159.2499084 34.791664100000006 156.05776980000002 39.1502228 L 156.05776980000002 39.1502228 C 155.08578490000002 40.4777374 154.27267460000002 41.9180184 153.66671760000003 43.4476776 C 152.75706490000002 45.743991799999996 152.02317820000002 48.0953865 151.44104010000004 50.466682399999996 C 146.43667610000003 70.8503265 152.81703190000005 92.37986749999999 167.68048100000004 107.19932549999999 C 181.27789310000003 120.75620259999998 197.34236150000004 138.79209889999998 199.74082950000005 150.414978 C 204.00567630000003 171.0779571 190.71188360000005 191.2856598 170.04907230000003 195.5501861 C 149.38624580000004 199.81469719999998 129.17837530000003 186.5212402 124.91386420000003 165.8584136 C 122.67787940000004 155.024475 129.13931280000003 134.3731383 135.79211430000004 117.1773833 C 141.48956300000003 102.4510192 143.72489930000003 86.66901390000001 142.31187440000005 71.1438674 C 141.97201540000006 67.4096679 137.12335210000006 66.1784133 135.05659490000005 69.30704490000001 C 116.22917180000005 97.80789180000001 94.63323220000005 135.10752860000002 94.63323220000005 156.2517699 C 94.63323220000005 193.7336882 125.01824200000004 224.118698 162.50016790000006 224.118698 C 199.98175050000006 224.118698 230.36676030000007 193.7336882 230.36676030000007 156.2517699 C 230.3667603 125.9054947 185.8801727 62.2764931 168.9422302 39.1502228 z" stroke-linecap="round" />
</g>
</g>
</g>
</svg>