<svg xmlns="http://www.w3.org/2000/svg" xmlns:xlink="http://www.w3.org/1999/xlink" width="500" zoomAndPan="magnify" viewBox="0 0 375 374.999991" height="500" preserveAspectRatio="xMidYMid meet" version="1.0"><defs><clipPath id="10bc90fd2f"><path d="M 29.9375 31.273438 L 344.9375 31.273438 L 344.9375 346.273438 L 29.9375 346.273438 Z M 29.9375 31.273438 " clip-rule="nonzero"/></clipPath><clipPath id="01fff2f94c"><path d="M 187.496094 31.273438 C 100.480469 31.273438 29.9375 101.816406 29.9375 188.832031 C 29.9375 275.851562 100.480469 346.390625 187.496094 346.390625 C 274.511719 346.390625 345.054688 275.851562 345.054688 188.832031 C 345.054688 101.816406 274.511719 31.273438 187.496094 31.273438 Z M 187.496094 31.273438 " clip-rule="nonzero"/></clipPath><clipPath id="dc67ac7ed1"><path d="M 112.5 113.835938 L 262.5 113.835938 L 262.5 188.835938 L 112.5 188.835938 Z M 112.5 113.835938 " clip-rule="nonzero"/></clipPath></defs><g clip-path="url(#10bc90fd2f)"><g clip-path="url(#01fff2f94c)"><path stroke-linecap="butt" transform="matrix(0.75, 0, 0, 0.75, 29.937503, 31.274324)" fill="none" stroke-linejoin="miter" d="M 210.078135 -0.00118204 C 94.057294 -0.00118204 -0.00000423214 94.056116 -0.00000423214 210.076957 C -0.00000423214 326.103006 94.057294 420.155096 210.078135 420.155096 C 326.098976 420.155096 420.156273 326.103006 420.156273 210.076957 C 420.156273 94.056116 326.098976 -0.00118204 210.078135 -0.00118204 Z M 210.078135 -0.00118204 " stroke="#ffffff" stroke-width="36" stroke-opacity="1" stroke-miterlimit="4"/></g></g><path stroke-linecap="butt" transform="matrix(0.75, 0, 0, 0.75, 37.500002, 144.586807)" fill="none" stroke-linejoin="miter" d="M -0.00000271667 8.998841 L 28.218749 8.998841 C 43.802083 8.998841 56.437501 21.634258 56.437501 37.217593 L 56.437501 37.394676 C 56.437501 44.925927 59.427085 52.149885 64.75521 57.472802 C 70.078127 62.800928 77.302086 65.790511 84.833336 65.790511 L 320.723977 65.790511 C 328.255227 65.790511 335.479186 62.800928 340.802103 57.472802 C 346.130228 52.149885 349.119812 44.925927 349.119812 37.394676 L 349.119812 34.441551 C 349.119812 20.389467 360.510438 8.998841 374.562522 8.998841 L 400.000024 8.998841 " stroke="#ffffff" stroke-width="18" stroke-opacity="1" stroke-miterlimit="4"/><g clip-path="url(#dc67ac7ed1)"><path fill="#ffffff" d="M 262.5 188.835938 L 248.265625 188.835938 C 248.265625 155.332031 221.003906 128.074219 187.5 128.074219 C 153.996094 128.074219 126.734375 155.332031 126.734375 188.835938 L 112.5 188.835938 C 112.5 147.480469 146.144531 113.835938 187.5 113.835938 C 228.855469 113.835938 262.5 147.480469 262.5 188.835938 Z M 262.5 188.835938 " fill-opacity="1" fill-rule="nonzero"/></g><path stroke-linecap="butt" transform="matrix(0.75, 0, 0, 0.75, 37.500002, 208.756921)" fill="none" stroke-linejoin="miter" d="M -0.00000271667 9.00119 L 77.484377 9.00119 C 88.69792 9.00119 97.79167 18.089732 97.79167 29.303274 C 97.79167 40.516817 106.880213 49.610567 118.093755 49.610567 L 288.005225 49.610567 C 299.218767 49.610567 308.307309 40.516817 308.307309 29.303274 C 308.307309 18.089732 317.40106 9.00119 328.614602 9.00119 L 400.000024 9.00119 " stroke="#ffffff" stroke-width="18" stroke-opacity="1" stroke-miterlimit="4"/><path stroke-linecap="butt" transform="matrix(0.75, 0, 0, 0.75, 60.328877, 260.790628)" fill="none" stroke-linejoin="miter" d="M -0.00100312 8.997913 L 90.092753 8.997913 C 100.389628 8.997913 108.733379 17.346872 108.733379 27.638539 C 108.733379 37.935415 117.07713 46.279165 127.374005 46.279165 L 217.540678 46.279165 C 227.832345 46.279165 236.176096 37.935415 236.176096 27.638539 C 236.176096 17.346872 244.525055 8.997913 254.816722 8.997913 L 339.124019 8.997913 " stroke="#ffffff" stroke-width="18" stroke-opacity="1" stroke-miterlimit="4"/></svg>