<?xml version="1.0" encoding="UTF-8"?>
<svg xmlns="http://www.w3.org/2000/svg" xmlns:xlink="http://www.w3.org/1999/xlink" width="500" zoomAndPan="magnify" viewBox="0 0 375 374.999991" height="500" preserveAspectRatio="xMidYMid meet" version="1.0">
  <!-- Definitions for clipping -->
  <defs>
    <clipPath id="wave-clip">
      <!-- Main wave path for clipping -->
      <path transform="matrix(0.75, 0, 0, 0.75, 92.47105, 199.559444)" d="M -100 51.582202 L -100 -200 L 400 -200 L 400 51.582202 C 129.778191 -8.527177 67.137562 -8.527177 4.502141 51.582202 Z" />
    </clipPath>
  </defs>
  
  <!-- Background -->
  <rect x="-37.5" width="450" fill="none" y="-37.499999" height="449.999989" fill-opacity="0"/>
  
  <!-- Circles with clipping -->
  <g clip-path="url(#wave-clip)">
    <!-- Outer circle -->
    <path stroke-linecap="butt" transform="matrix(0.75, 0, 0, 0.75, 81.884764, 90.01564)" fill="none" stroke-linejoin="miter" d="M 140.820324 -0.0000195853 C 63.049486 -0.0000195853 -0.0026019 63.04686 -0.0026019 140.822906 C -0.0026019 218.593745 63.049486 281.640624 140.820324 281.640624 C 218.591162 281.640624 281.638042 218.593745 281.638042 140.822906 C 281.638042 63.04686 218.591162 -0.0000195853 140.820324 -0.0000195853 Z M 140.820324 -0.0000195853" stroke="#175563" stroke-width="26" stroke-opacity="1" stroke-miterlimit="4"/>
    
    <!-- Middle circle -->
    <path stroke-linecap="butt" transform="matrix(0.75, 0, 0, 0.75, 112.646481, 120.777354)" fill="none" stroke-linejoin="miter" d="M 99.804698 -0.0000142919 C 44.684903 -0.0000142919 -0.0025998 44.68228 -0.0025998 99.807284 C -0.0025998 154.927079 44.684903 199.609374 99.804698 199.609374 C 154.924494 199.609374 199.606788 154.927079 199.606788 99.807284 C 199.606788 44.68228 154.924494 -0.0000142919 99.804698 -0.0000142919 Z M 99.804698 -0.0000142919" stroke="#0f5387" stroke-width="26" stroke-opacity="1" stroke-miterlimit="4"/>
    
    <!-- Inner circle -->
    <path stroke-linecap="butt" transform="matrix(0.75, 0, 0, 0.75, 147.949214, 156.080087)" fill="none" stroke-linejoin="miter" d="M 52.734385 0.00259187 C 23.609383 0.00259187 0.00000635378 23.611968 0.00000635378 52.73697 C 0.00000635378 81.856764 23.609383 105.471349 52.734385 105.471349 C 81.859387 105.471349 105.468763 81.856764 105.468763 52.73697 C 105.468763 23.611968 81.859387 0.00259187 52.734385 0.00259187 Z M 52.734385 0.00259187" stroke="#0f5387" stroke-width="26" stroke-opacity="1" stroke-miterlimit="4"/>
  </g>
  
  <!-- Wave lines (on top of circles) -->
  <g>
    <!-- Main wave -->
    <path stroke-linecap="butt" transform="matrix(0.75, 0, 0, 0.75, 92.47105, 199.559444)" fill="none" stroke-linejoin="miter" d="M 4.502141 51.582202 C 67.137562 -8.527177 129.778191 -8.527177 192.41882 51.582202" stroke="#175563" stroke-width="18" stroke-opacity="1" stroke-miterlimit="4"/>
    
    <!-- Left wave -->
    <path stroke-linecap="butt" transform="matrix(0.745831, -0.0789695, 0.0789695, 0.745831, 108.708842, 239.922625)" fill="none" stroke-linejoin="miter" d="M 4.508988 37.4266 C 47.307204 -3.806685 90.107478 -3.805332 132.905178 37.424931" stroke="#175563" stroke-width="18" stroke-opacity="1" stroke-miterlimit="4"/>
    
    <!-- Middle wave -->
    <path stroke-linecap="butt" transform="matrix(0.747036, 0.0666154, -0.0666154, 0.747036, 142.57561, 269.099982)" fill="none" stroke-linejoin="miter" d="M 3.900309 23.294624 C 33.732256 0.900175 63.558639 0.90203 93.384185 23.29454" stroke="#175563" stroke-width="18" stroke-opacity="1" stroke-miterlimit="4"/>
    
    <!-- Right small wave -->
    <path stroke-linecap="butt" transform="matrix(0.659385, 0.357367, -0.357367, 0.659385, 208.351676, 249.634584)" fill="none" stroke-linejoin="miter" d="M 1.879952 6.223583 C 32.490941 15.462345 52.76866 15.461607 62.701467 6.221756" stroke="#175563" stroke-width="18" stroke-opacity="1" stroke-miterlimit="4"/>
    
    <!-- Right wave -->
    <path stroke-linecap="butt" transform="matrix(0.729021, 0.176148, -0.176148, 0.729021, 220.726176, 221.034566)" fill="none" stroke-linejoin="miter" d="M 3.321855 5.585163 C 40.620838 27.763037 66.115653 27.764855 79.794951 5.588002" stroke="#175563" stroke-width="18" stroke-opacity="1" stroke-miterlimit="4"/>
  </g>
</svg>