<svg xmlns="http://www.w3.org/2000/svg" xmlns:xlink="http://www.w3.org/1999/xlink" width="500" zoomAndPan="magnify" viewBox="0 0 375 374.999991" height="500" preserveAspectRatio="xMidYMid meet" version="1.0"><defs><clipPath id="c90f2a8b49"><path d="M 110.25 99.6875 L 260.25 99.6875 L 260.25 174.6875 L 110.25 174.6875 Z M 110.25 99.6875 " clip-rule="nonzero"/></clipPath><clipPath id="fb781db12c"><path d="M 27.6875 17.125 L 342.6875 17.125 L 342.6875 332.125 L 27.6875 332.125 Z M 27.6875 17.125 " clip-rule="nonzero"/></clipPath><clipPath id="cf0d76b985"><path d="M 185.246094 17.125 C 98.230469 17.125 27.6875 87.667969 27.6875 174.683594 C 27.6875 261.699219 98.230469 332.242188 185.246094 332.242188 C 272.261719 332.242188 342.804688 261.699219 342.804688 174.683594 C 342.804688 87.667969 272.261719 17.125 185.246094 17.125 Z M 185.246094 17.125 " clip-rule="nonzero"/></clipPath></defs><rect x="-37.5" width="450" fill="#ffffff" y="-37.499999" height="449.999989" fill-opacity="1"/><rect x="-37.5" width="450" fill="#ffffff" y="-37.499999" height="449.999989" fill-opacity="1"/><g clip-path="url(#c90f2a8b49)"><path fill="#053242" d="M 260.25 174.6875 L 246.015625 174.6875 C 246.015625 141.183594 218.753906 113.921875 185.25 113.921875 C 151.746094 113.921875 124.484375 141.183594 124.484375 174.6875 L 110.25 174.6875 C 110.25 133.332031 143.894531 99.6875 185.25 99.6875 C 226.605469 99.6875 260.25 133.332031 260.25 174.6875 Z M 260.25 174.6875 " fill-opacity="1" fill-rule="nonzero"/></g><path stroke-linecap="butt" transform="matrix(0.75, 0, 0, 0.75, 35.250002, 130.4375)" fill="none" stroke-linejoin="miter" d="M -0.00000291367 9 L 28.218749 9 C 43.802083 9 56.437501 21.635418 56.437501 37.218752 L 56.437501 37.395835 C 56.437501 44.927086 59.427084 52.145836 64.75521 57.473962 C 70.078127 62.796879 77.302085 65.791671 84.833336 65.791671 L 320.723976 65.791671 C 328.255227 65.791671 335.479186 62.796879 340.802103 57.473962 C 346.130228 52.145836 349.119812 44.927086 349.119812 37.395835 L 349.119812 34.437502 C 349.119812 20.390626 360.510437 9 374.562522 9 L 400.000023 9 " stroke="#0a4c5e" stroke-width="18" stroke-opacity="1" stroke-miterlimit="4"/><path stroke-linecap="butt" transform="matrix(0.75, 0, 0, 0.75, 35.250002, 194.607614)" fill="none" stroke-linejoin="miter" d="M -0.00000291367 9.002349 L 77.484377 9.002349 C 88.69792 9.002349 97.79167 18.090891 97.79167 29.304434 C 97.79167 40.517976 106.880212 49.606518 118.093755 49.606518 L 288.005224 49.606518 C 299.218767 49.606518 308.307309 40.517976 308.307309 29.304434 C 308.307309 18.090891 317.40106 9.002349 328.614602 9.002349 L 400.000023 9.002349 " stroke="#0d768b" stroke-width="18" stroke-opacity="1" stroke-miterlimit="4"/><path stroke-linecap="butt" transform="matrix(0.75, 0, 0, 0.75, 58.078877, 246.641264)" fill="none" stroke-linejoin="miter" d="M -0.00100331 8.999149 L 90.092753 8.999149 C 100.389628 8.999149 108.733379 17.342899 108.733379 27.639775 C 108.733379 37.931442 117.077129 46.280401 127.374005 46.280401 L 217.540678 46.280401 C 227.832345 46.280401 236.176096 37.931442 236.176096 27.639775 C 236.176096 17.342899 244.525054 8.999149 254.816722 8.999149 L 339.124019 8.999149 " stroke="#47b5c8" stroke-width="18" stroke-opacity="1" stroke-miterlimit="4"/><g clip-path="url(#fb781db12c)"><g clip-path="url(#cf0d76b985)"><path stroke-linecap="butt" transform="matrix(0.75, 0, 0, 0.75, 27.687503, 17.125)" fill="none" stroke-linejoin="miter" d="M 210.078134 -0.000000207278 C 94.057293 -0.000000207278 -0.00000442914 94.057298 -0.00000442914 210.078139 C -0.00000442914 326.09898 94.057293 420.156277 210.078134 420.156277 C 326.098975 420.156277 420.156273 326.09898 420.156273 210.078139 C 420.156273 94.057298 326.098975 -0.000000207278 210.078134 -0.000000207278 Z M 210.078134 -0.000000207278 " stroke="#0a4c5e" stroke-width="36" stroke-opacity="1" stroke-miterlimit="4"/></g></g></svg>